<svg width="16" height="16" viewBox="0 0 16 16" fill="none" xmlns="http://www.w3.org/2000/svg">
	<path d="M12.5725 8.86133L8.1996 11.8956C8.14088 11.9363 8.07109 11.9582 7.9996 11.9582C7.92811 11.9582 7.85832 11.9363 7.7996 11.8956L3.4276 8.86133L0.825822 10.6667C0.811151 10.677 0.799174 10.6906 0.790906 10.7065C0.782637 10.7224 0.77832 10.7401 0.77832 10.758C0.77832 10.7759 0.782637 10.7936 0.790906 10.8095C0.799174 10.8254 0.811151 10.839 0.825822 10.8493L7.87027 15.7382C7.90844 15.7645 7.9537 15.7786 8.00004 15.7786C8.04639 15.7786 8.09164 15.7645 8.12982 15.7382L15.1743 10.8493C15.1889 10.839 15.2009 10.8254 15.2092 10.8095C15.2175 10.7936 15.2218 10.7759 15.2218 10.758C15.2218 10.7401 15.2175 10.7224 15.2092 10.7065C15.2009 10.6906 15.1889 10.677 15.1743 10.6667L12.5725 8.86133Z" fill="#6E6E6E"/>
	<path d="M2.01049 5.24206L8.00045 1.0844L13.9903 5.24047L8.00034 9.39661L2.01049 5.24206Z" stroke="#6E6E6E" stroke-width="1.5"/>
</svg>
	